HIERARCHY
ROOT Hips
{
	OFFSET	0.00	0.00	0.00
	CHANNELS 6 Xposition Yposition Zposition Zrotation Xrotation Yrotation
	JOINT LeftUpperLeg
	{
		OFFSET	 0.000000	-0.151056	 0.000000
		CHANNELS 3 Zrotation Xrotation Yrotation
		JOINT LeftLowerLeg
		{
			OFFSET	 0.559505	 0.000000	 0.000000
			CHANNELS 3 Zrotation Xrotation Yrotation
			JOINT LeftFoot
			{
				OFFSET	 0.559505	 0.000000	 0.000000
				CHANNELS 3 Zrotation Xrotation Yrotation
				JOINT LeftToes
				{
					OFFSET	 0.170881	 0.000000	 0.250536
					CHANNELS 3 Zrotation Xrotation Yrotation
					End Site
					{
						OFFSET	 0.170881	 0.000000	 0.250536
					}
				}
			}
		}
	}
	JOINT RightUpperLeg
	{
		OFFSET	 0.000000	 0.151056	-0.000000
		CHANNELS 3 Zrotation Xrotation Yrotation
		JOINT RightLowerLeg
		{
			OFFSET	 0.559505	 0.000000	 0.000000
			CHANNELS 3 Zrotation Xrotation Yrotation
			JOINT RightFoot
			{
				OFFSET	 0.559505	 0.000000	 0.000000
				CHANNELS 3 Zrotation Xrotation Yrotation
				JOINT RightToes
				{
					OFFSET	 0.170881	 0.000000	 0.250536
					CHANNELS 3 Zrotation Xrotation Yrotation
					End Site
					{
						OFFSET	 0.170881	 0.000000	 0.250536
					}
				}
			}
		}
	}
	JOINT Spine
	{
		OFFSET	 0.128686	 0.000000	-0.000155
		CHANNELS 3 Zrotation Xrotation Yrotation
		JOINT Chest
		{
			OFFSET	 0.193962	 0.000000	-0.000154
			CHANNELS 3 Zrotation Xrotation Yrotation
			JOINT B_Spine2
			{
				OFFSET	 0.193962	 0.000000	-0.000154
				CHANNELS 3 Zrotation Xrotation Yrotation
				JOINT LeftShoulder
				{
					OFFSET	 0.193962	-0.057714	-0.000009
					CHANNELS 3 Zrotation Xrotation Yrotation
					JOINT LeftUpperArm
					{
						OFFSET	 0.279178	 0.000000	 0.000000
						CHANNELS 3 Zrotation Xrotation Yrotation
						JOINT LeftLowerArm
						{
							OFFSET	 0.418437	-0.000000	 0.000000
							CHANNELS 3 Zrotation Xrotation Yrotation
							JOINT LeftHand
							{
								OFFSET	 0.319113	 0.000000	-0.000000
								CHANNELS 3 Zrotation Xrotation Yrotation
								JOINT LeftThumbProximal
								{
									OFFSET	 0.141490	 0.101064	-0.000081
									CHANNELS 3 Zrotation Xrotation Yrotation
									JOINT LeftThumbIntermediate
									{
										OFFSET	 0.061423	 0.000000	 0.000000
										CHANNELS 3 Zrotation Xrotation Yrotation
										JOINT LeftThumbDistal
										{
											OFFSET	 0.061423	-0.000000	 0.000000
											CHANNELS 3 Zrotation Xrotation Yrotation
											End Site
											{
												OFFSET	 0.061423	-0.000000	 0.000000
											}
										}
									}
								}
								JOINT LeftIndexProximal
								{
									OFFSET	 0.205475	 0.059923	-0.034993
									CHANNELS 3 Zrotation Xrotation Yrotation
									JOINT LeftIndexIntermediate
									{
										OFFSET	 0.073708	-0.000000	 0.000000
										CHANNELS 3 Zrotation Xrotation Yrotation
										JOINT LeftIndexDistal
										{
											OFFSET	 0.073708	 0.000000	-0.000000
											CHANNELS 3 Zrotation Xrotation Yrotation
											End Site
											{
												OFFSET	 0.073708	 0.000000	-0.000000
											}
										}
									}
								}
								JOINT LeftMiddleProximal
								{
									OFFSET	 0.205475	 0.019497	-0.034961
									CHANNELS 3 Zrotation Xrotation Yrotation
									JOINT LeftMiddleIntermediate
									{
										OFFSET	 0.085992	-0.000000	 0.000000
										CHANNELS 3 Zrotation Xrotation Yrotation
										JOINT LeftMiddleDistal
										{
											OFFSET	 0.085993	 0.000000	 0.000000
											CHANNELS 3 Zrotation Xrotation Yrotation
											End Site
											{
												OFFSET	 0.085993	 0.000000	 0.000000
											}
										}
									}
								}
								JOINT LeftRingProximal
								{
									OFFSET	 0.205475	-0.020928	-0.034929
									CHANNELS 3 Zrotation Xrotation Yrotation
									JOINT LeftRingIntermediate
									{
										OFFSET	 0.073708	 0.000000	 0.000000
										CHANNELS 3 Zrotation Xrotation Yrotation
										JOINT LeftRingDistal
										{
											OFFSET	 0.073708	 0.000000	 0.000000
											CHANNELS 3 Zrotation Xrotation Yrotation
											End Site
											{
												OFFSET	 0.073708	 0.000000	 0.000000
											}
										}
									}
								}
								JOINT LeftLittleProximal
								{
									OFFSET	 0.205475	-0.061354	-0.034897
									CHANNELS 3 Zrotation Xrotation Yrotation
									JOINT LeftLittleIntermediate
									{
										OFFSET	 0.061423	-0.000000	 0.000000
										CHANNELS 3 Zrotation Xrotation Yrotation
										JOINT LeftLittleDistal
										{
											OFFSET	 0.061423	 0.000000	-0.000000
											CHANNELS 3 Zrotation Xrotation Yrotation
											End Site
											{
												OFFSET	 0.061423	 0.000000	-0.000000
											}
										}
									}
								}
							}
						}
					}
				}
				JOINT Neck
				{
					OFFSET	 0.193962	-0.000000	-0.000102
					CHANNELS 3 Zrotation Xrotation Yrotation
					JOINT Head
					{
						OFFSET	 0.128209	 0.000000	 0.000000
						CHANNELS 3 Zrotation Xrotation Yrotation
						End Site
						{
							OFFSET	 0.128209	 0.000000	 0.000000
						}
					}
				}
				JOINT RightShoulder
				{
					OFFSET	 0.193962	 0.057714	 0.000009
					CHANNELS 3 Zrotation Xrotation Yrotation
					JOINT RightUpperArm
					{
						OFFSET	 0.279177	 0.000000	 0.000000
						CHANNELS 3 Zrotation Xrotation Yrotation
						JOINT RightLowerArm
						{
							OFFSET	 0.418437	-0.000000	 0.000000
							CHANNELS 3 Zrotation Xrotation Yrotation
							JOINT RightHand
							{
								OFFSET	 0.319113	 0.000000	 0.000000
								CHANNELS 3 Zrotation Xrotation Yrotation
								JOINT RightThumbProximal
								{
									OFFSET	 0.141490	-0.101064	-0.000081
									CHANNELS 3 Zrotation Xrotation Yrotation
									JOINT RightThumbIntermediate
									{
										OFFSET	 0.061423	 0.000000	-0.000000
										CHANNELS 3 Zrotation Xrotation Yrotation
										JOINT RightThumbDistal
										{
											OFFSET	 0.061423	-0.000000	 0.000000
											CHANNELS 3 Zrotation Xrotation Yrotation
											End Site
											{
												OFFSET	 0.061423	-0.000000	 0.000000
											}
										}
									}
								}
								JOINT RightIndexProximal
								{
									OFFSET	 0.205475	-0.059923	-0.034993
									CHANNELS 3 Zrotation Xrotation Yrotation
									JOINT RightIndexIntermediate
									{
										OFFSET	 0.073708	 0.000000	 0.000000
										CHANNELS 3 Zrotation Xrotation Yrotation
										JOINT RightIndexDistal
										{
											OFFSET	 0.073708	 0.000000	-0.000000
											CHANNELS 3 Zrotation Xrotation Yrotation
											End Site
											{
												OFFSET	 0.073708	 0.000000	-0.000000
											}
										}
									}
								}
								JOINT RightMiddleProximal
								{
									OFFSET	 0.205475	-0.019498	-0.034961
									CHANNELS 3 Zrotation Xrotation Yrotation
									JOINT RightMiddleIntermediate
									{
										OFFSET	 0.085992	 0.000000	-0.000000
										CHANNELS 3 Zrotation Xrotation Yrotation
										JOINT RightMiddleDistal
										{
											OFFSET	 0.085992	-0.000000	 0.000000
											CHANNELS 3 Zrotation Xrotation Yrotation
											End Site
											{
												OFFSET	 0.085992	-0.000000	 0.000000
											}
										}
									}
								}
								JOINT RightRingProximal
								{
									OFFSET	 0.205475	 0.020928	-0.034929
									CHANNELS 3 Zrotation Xrotation Yrotation
									JOINT RightRingIntermediate
									{
										OFFSET	 0.073708	 0.000000	 0.000000
										CHANNELS 3 Zrotation Xrotation Yrotation
										JOINT RightRingDistal
										{
											OFFSET	 0.073708	 0.000000	-0.000000
											CHANNELS 3 Zrotation Xrotation Yrotation
											End Site
											{
												OFFSET	 0.073708	 0.000000	-0.000000
											}
										}
									}
								}
								JOINT RightLittleProximal
								{
									OFFSET	 0.205475	 0.061354	-0.034897
									CHANNELS 3 Zrotation Xrotation Yrotation
									JOINT RightLittleIntermediate
									{
										OFFSET	 0.061423	-0.000000	 0.000000
										CHANNELS 3 Zrotation Xrotation Yrotation
										JOINT RightLittleDistal
										{
											OFFSET	 0.061424	 0.000000	 0.000000
											CHANNELS 3 Zrotation Xrotation Yrotation
											End Site
											{
												OFFSET	 0.061424	 0.000000	 0.000000
											}
										}
									}
								}
							}
						}
					}
				}
			}
		}
	}
}
MOTION
Frames:    4
Frame Time: 0.01666667
 0.112679	-3.561699	 1.308286	 49.071230	-3.762132	-98.381800	 177.123200	 2.857297	-26.118850	-8.141031	 1.191739	 81.725340	 8.368697	-1.916704	-20.029340	 0.000002	 0.000084	-112.458300	-172.191300	 16.424140	-28.185550	 0.945765	-2.416160	 21.382020	-14.039780	 0.877783	-1.389893	 0.000008	 0.000065	-92.326160	 0.524283	-31.743150	 1.353837	-2.215808	-0.514976	-1.892849	-0.000000	-0.008579	-0.000003	 87.479100	 0.198049	 171.026200	 29.884160	 1.632755	-31.961850	 4.778817	-20.534110	 89.788970	 164.759600	-78.451740	 150.430600	 68.316360	 38.350730	-25.701860	-7.867527	 1.057835	-15.111500	-13.167700	 1.817809	-31.510600	 16.012830	-7.187448	 1.329462	 1.264523	-3.510035	-28.707630	 0.653824	-3.088560	-28.889780	 2.975435	-4.336347	 15.181860	 3.094534	-5.050997	-51.642990	 0.491526	-3.046052	-27.291080	-9.359828	 1.480977	-20.553630	 0.952403	-3.351178	-25.368050	 0.313900	-3.004916	-25.554010	-14.328160	 4.686972	-35.249820	 1.894322	-3.906772	-35.803080	 0.323257	-3.006935	-25.645200	-7.356910	-2.735766	-15.474910	-25.784910	 49.868650	 35.982940	-84.221530	-0.075461	 178.496300	-25.061560	-9.711766	-11.670850	-11.477620	 12.556720	 73.990360	-146.819000	 68.084070	 144.025400	-64.381010	-38.845790	-33.390140	 12.854670	-2.739598	-22.157190	 18.198210	-3.821305	-38.678800	-13.764970	 6.834216	-9.257354	-2.166132	 4.114307	-39.055780	-1.667408	 3.470837	-39.224740	-2.108773	 3.720807	 4.592710	-3.692302	 5.961779	-62.039650	-1.515175	 3.399658	-37.623920	 8.645656	-2.030263	-31.122420	-1.886799	 3.901471	-35.711150	-1.347488	 3.327429	-35.884630	 12.803730	-4.729793	-45.869560	-2.715886	 4.618585	-46.163450	-1.356300	 3.331035	-35.975940
 0.105069	-3.619221	 1.318195	 45.970120	-3.321074	-98.657080	 179.193100	 1.270011	-30.509060	-9.059016	 0.695536	 85.643960	 6.682294	-1.440149	-18.570250	 0.000002	 0.000084	-113.061000	-172.714300	 18.499840	-25.254500	 0.761381	-2.219160	 18.939760	-12.879350	 0.921630	-2.422275	 0.000008	 0.000065	-91.990730	 0.517032	-29.603390	 1.569950	-2.215798	-0.514972	-1.656248	-0.000000	-0.008579	-0.000003	 87.437850	 0.201245	 171.028100	 27.054870	 0.588992	-29.945010	 4.784153	-21.560730	 89.871060	 164.134100	-78.427210	 149.810000	 68.316330	 38.350730	-25.701830	-7.867527	 1.057835	-15.111500	-13.167700	 1.817809	-31.510600	 16.012830	-7.187450	 1.329463	 1.264523	-3.510035	-28.707630	 0.653823	-3.088559	-28.889770	 2.975435	-4.336347	 15.181860	 3.094534	-5.050997	-51.642990	 0.491525	-3.046052	-27.291070	-9.359828	 1.480977	-20.553630	 0.952403	-3.351178	-25.368050	 0.313902	-3.004915	-25.554030	-14.328140	 4.686960	-35.249810	 1.894322	-3.906772	-35.803080	 0.323257	-3.006935	-25.645200	-7.350019	-2.757365	-15.239050	-26.963090	 50.821360	 36.570560	-84.252630	-0.073349	 178.530300	-23.081560	-8.813766	-9.777799	-11.498500	 12.959450	 74.074680	-146.711700	 68.050370	 143.892900	-64.381010	-38.845790	-33.390140	 12.854660	-2.739595	-22.157180	 18.198210	-3.821305	-38.678800	-13.764960	 6.834214	-9.257330	-2.166134	 4.114309	-39.055800	-1.667408	 3.470837	-39.224740	-2.108773	 3.720807	 4.592710	-3.692304	 5.961780	-62.039670	-1.515175	 3.399658	-37.623920	 8.645636	-2.030251	-31.122420	-1.886799	 3.901471	-35.711150	-1.347488	 3.327429	-35.884630	 12.803730	-4.729792	-45.869540	-2.715886	 4.618585	-46.163450	-1.356299	 3.331035	-35.975930
 0.101524	-3.674449	 1.320917	 43.248040	-2.925874	-98.875160	-178.996200	-0.700013	-33.346210	-9.856598	 0.537069	 86.909920	 5.085392	-1.031060	-17.180210	 0.000002	 0.000084	-113.109600	-173.733200	 20.340310	-24.059780	 0.661248	-1.872112	 19.454740	-11.371170	 1.005182	-4.341000	 0.000008	 0.000065	-91.694030	 0.501932	-27.712470	 1.568273	-2.215798	-0.514966	-1.636020	-0.000000	-0.008579	-0.000003	 87.434330	 0.201519	 171.028300	 24.658530	-0.658598	-27.984800	 4.783840	-22.686370	 89.958210	 163.761900	-78.434840	 149.473900	 68.316350	 38.350730	-25.701820	-7.867527	 1.057835	-15.111500	-13.167700	 1.817809	-31.510600	 16.012830	-7.187450	 1.329463	 1.264523	-3.510035	-28.707630	 0.653823	-3.088559	-28.889770	 2.975435	-4.336347	 15.181860	 3.094535	-5.050998	-51.643000	 0.491525	-3.046052	-27.291070	-9.359828	 1.480977	-20.553630	 0.952403	-3.351178	-25.368050	 0.313902	-3.004915	-25.554030	-14.328140	 4.686960	-35.249810	 1.894322	-3.906772	-35.803080	 0.323257	-3.006935	-25.645200	-7.349437	-2.759209	-15.218900	-28.570160	 51.339820	 37.874840	-84.345130	-0.071778	 178.538200	-21.336940	-7.823756	-7.945662	-11.518990	 13.425360	 74.171820	-146.707000	 68.051690	 143.891600	-64.381020	-38.845790	-33.390130	 12.854660	-2.739595	-22.157180	 18.198210	-3.821305	-38.678800	-13.764960	 6.834214	-9.257330	-2.166134	 4.114309	-39.055800	-1.667408	 3.470837	-39.224740	-2.108773	 3.720807	 4.592710	-3.692304	 5.961780	-62.039670	-1.515175	 3.399658	-37.623920	 8.645636	-2.030251	-31.122420	-1.886799	 3.901471	-35.711150	-1.347490	 3.327430	-35.884640	 12.803730	-4.729792	-45.869540	-2.715886	 4.618585	-46.163450	-1.356299	 3.331035	-35.975930
 0.101072	-3.742771	 1.316881	 40.193850	-2.459321	-99.100240	-176.931200	-3.536195	-35.380650	-10.706380	 0.800231	 85.773440	 3.092160	-0.578324	-15.454790	 0.000002	 0.000084	-112.603900	-175.435200	 22.453470	-24.457630	 0.553901	-1.278260	 23.425530	-9.090715	 1.084489	-7.848569	 0.000008	 0.000065	-91.358620	 0.496533	-25.574420	 1.347243	-2.215816	-0.514977	-1.837850	-0.000000	-0.008579	-0.000003	 87.469490	 0.198797	 171.026600	 22.084590	-2.415096	-25.574980	 4.777966	-24.162400	 90.069110	 163.558800	-78.478430	 149.347600	 68.316350	 38.350730	-25.701820	-7.867527	 1.057835	-15.111500	-13.167700	 1.817809	-31.510600	 16.012830	-7.187448	 1.329462	 1.264523	-3.510035	-28.707630	 0.653824	-3.088560	-28.889780	 2.975434	-4.336349	 15.181880	 3.094537	-5.051000	-51.643020	 0.491525	-3.046052	-27.291070	-9.359828	 1.480977	-20.553630	 0.952403	-3.351178	-25.368050	 0.313900	-3.004916	-25.554010	-14.328140	 4.686960	-35.249810	 1.894322	-3.906772	-35.803080	 0.323257	-3.006935	-25.645200	-7.355323	-2.740794	-15.420050	-31.057030	 51.494010	 40.261130	-84.513890	-0.070526	 178.519500	-19.456170	-6.494890	-5.733413	-11.544450	 14.070730	 74.306120	-146.806500	 68.089970	 144.025900	-64.381010	-38.845790	-33.390140	 12.854670	-2.739598	-22.157190	 18.198210	-3.821305	-38.678800	-13.764960	 6.834214	-9.257330	-2.166132	 4.114307	-39.055780	-1.667408	 3.470837	-39.224740	-2.108773	 3.720807	 4.592710	-3.692302	 5.961779	-62.039650	-1.515175	 3.399658	-37.623920	 8.645636	-2.030251	-31.122420	-1.886798	 3.901470	-35.711130	-1.347490	 3.327430	-35.884640	 12.803720	-4.729785	-45.869560	-2.715886	 4.618585	-46.163450	-1.356299	 3.331035	-35.975930
